<?xml version="1.0" encoding="UTF-8" standalone="no"?>
<!-- Generator: Adobe Illustrator 27.8.1, SVG Export Plug-In . SVG Version: 6.00 Build 0)  -->

<svg
   xmlns:dc="http://purl.org/dc/elements/1.1/"
   xmlns:cc="http://creativecommons.org/ns#"
   xmlns:rdf="http://www.w3.org/1999/02/22-rdf-syntax-ns#"
   xmlns:svg="http://www.w3.org/2000/svg"
   xmlns="http://www.w3.org/2000/svg"
   xmlns:sodipodi="http://sodipodi.sourceforge.net/DTD/sodipodi-0.dtd"
   xmlns:inkscape="http://www.inkscape.org/namespaces/inkscape"
   version="1.0"
   id="Layer_1"
   x="0px"
   y="0px"
   viewBox="0 0 58.63 58.63"
   style="enable-background:new 0 0 58.63 58.63;"
   xml:space="preserve"
   sodipodi:docname="network1.svg"
   inkscape:version="0.92.4 (5da689c313, 2019-01-14)"><metadata
   id="metadata7777"><rdf:RDF><cc:Work
       rdf:about=""><dc:format>image/svg+xml</dc:format><dc:type
         rdf:resource="http://purl.org/dc/dcmitype/StillImage" /><dc:title></dc:title></cc:Work></rdf:RDF></metadata><defs
   id="defs7775" /><sodipodi:namedview
   pagecolor="#ffffff"
   bordercolor="#666666"
   borderopacity="1"
   objecttolerance="10"
   gridtolerance="10"
   guidetolerance="10"
   inkscape:pageopacity="0"
   inkscape:pageshadow="2"
   inkscape:window-width="1920"
   inkscape:window-height="1017"
   id="namedview7773"
   showgrid="false"
   inkscape:zoom="13.951902"
   inkscape:cx="29.315001"
   inkscape:cy="29.315001"
   inkscape:window-x="-8"
   inkscape:window-y="-8"
   inkscape:window-maximized="1"
   inkscape:current-layer="Layer_1" />
<style
   type="text/css"
   id="style7704">
	.st0{fill:#6072B6;}
</style>
<g
   id="g7770">
	<g
   id="g7708">
		<path
   class="st0"
   d="M9.14,50.92c-1.6,0-2.9-1.3-2.9-2.9c0-1.6,1.3-2.9,2.9-2.9c1.6,0,2.9,1.3,2.9,2.9    C12.04,49.62,10.74,50.92,9.14,50.92z M9.14,47.08c-0.52,0-0.94,0.42-0.94,0.94c0,0.52,0.42,0.94,0.94,0.94    c0.52,0,0.94-0.42,0.94-0.94C10.08,47.5,9.66,47.08,9.14,47.08z"
   id="path7706" />
	</g>
	<g
   id="g7712">
		<path
   class="st0"
   d="M16.6,34.66c-1.3,0-2.35-1.06-2.35-2.35c0-1.3,1.06-2.35,2.35-2.35c1.3,0,2.35,1.06,2.35,2.35    C18.95,33.61,17.9,34.66,16.6,34.66z M16.6,31.91c-0.22,0-0.4,0.18-0.4,0.4c0,0.22,0.18,0.4,0.4,0.4s0.4-0.18,0.4-0.4    C17,32.09,16.82,31.91,16.6,31.91z"
   id="path7710" />
	</g>
	<g
   id="g7732">
		<path
   class="st0"
   d="M24.38,60.55c-0.04,0-0.07,0-0.11-0.01c-0.54-0.06-0.92-0.54-0.86-1.08l3.26-29.04    c0.06-0.54,0.54-0.92,1.08-0.86c0.54,0.06,0.92,0.54,0.86,1.08l-3.26,29.04C25.29,60.18,24.87,60.55,24.38,60.55z"
   id="path7714" />
		<path
   class="st0"
   d="M33.76,60.55c-0.49,0-0.91-0.37-0.97-0.87l-3.26-29.04c-0.06-0.54,0.33-1.02,0.86-1.08    c0.54-0.06,1.02,0.33,1.08,0.86l3.26,29.04c0.06,0.54-0.33,1.02-0.86,1.08C33.83,60.55,33.8,60.55,33.76,60.55z"
   id="path7716" />
		<path
   class="st0"
   d="M30.41,28.19c-0.49,0-0.91-0.37-0.97-0.87L28.1,14.93c-0.06-0.54,0.33-1.02,0.87-1.08    c0.54-0.06,1.02,0.33,1.08,0.87l1.34,12.38c0.06,0.54-0.33,1.02-0.87,1.08C30.48,28.18,30.45,28.19,30.41,28.19z"
   id="path7718" />
		<path
   class="st0"
   d="M27.73,28.19c-0.04,0-0.07,0-0.11-0.01c-0.54-0.06-0.92-0.54-0.87-1.08l1.34-12.38    c0.06-0.54,0.54-0.92,1.08-0.87c0.54,0.06,0.92,0.54,0.87,1.08L28.7,27.32C28.64,27.82,28.22,28.19,27.73,28.19z"
   id="path7720" />
		<path
   class="st0"
   d="M29.07,15.72c-1.78,0-3.23-1.45-3.23-3.23c0-1.78,1.45-3.23,3.23-3.23c1.78,0,3.23,1.45,3.23,3.23    C32.3,14.27,30.85,15.72,29.07,15.72z M29.07,11.21c-0.7,0-1.28,0.57-1.28,1.28c0,0.7,0.57,1.28,1.28,1.28    c0.7,0,1.28-0.57,1.28-1.28C30.35,11.79,29.77,11.21,29.07,11.21z"
   id="path7722" />
		<path
   class="st0"
   d="M34.02,31h-9.05C24.44,31,24,30.56,24,30.02v-3.05c0-0.54,0.44-0.98,0.98-0.98h9.05    c0.54,0,0.98,0.44,0.98,0.98v3.05C35,30.56,34.56,31,34.02,31z M26,29h7v-1h-7V29z"
   id="path7724" />
		<path
   class="st0"
   d="M31.86,43h-5.58c-0.55,0-1-0.45-1-1s0.45-1,1-1h5.58c0.55,0,1,0.45,1,1S32.41,43,31.86,43z"
   id="path7726" />
		<path
   class="st0"
   d="M32.96,53h-7.79c-0.55,0-1-0.45-1-1c0-0.55,0.45-1,1-1h7.79c0.55,0,1,0.45,1,1C33.96,52.55,33.52,53,32.96,53    z"
   id="path7728" />
		<path
   class="st0"
   d="M24.38,60.55c-0.26,0-0.52-0.1-0.71-0.31c-0.37-0.39-0.35-1.01,0.05-1.38l7.88-7.35l-6.06-8.93    c-0.21-0.3-0.22-0.7-0.05-1.02l4.53-8.17c0.26-0.47,0.86-0.64,1.33-0.38c0.47,0.26,0.64,0.86,0.38,1.33l-4.24,7.64l6.19,9.13    c0.27,0.4,0.21,0.93-0.14,1.26l-8.49,7.92C24.86,60.46,24.62,60.55,24.38,60.55z"
   id="path7730" />
	</g>
	<path
   class="st0"
   d="M37.74,24.01c-0.28,0-0.56-0.12-0.75-0.36c-0.34-0.42-0.28-1.03,0.13-1.37c2.95-2.42,4.64-6,4.64-9.81   c0-7-5.69-12.7-12.69-12.7s-12.69,5.7-12.69,12.7c0,3.8,1.68,7.37,4.61,9.79c0.42,0.34,0.47,0.96,0.13,1.37   c-0.34,0.42-0.96,0.47-1.37,0.13c-3.38-2.8-5.32-6.91-5.32-11.29c0-8.08,6.57-14.65,14.65-14.65s14.65,6.57,14.65,14.65   c0,4.4-1.95,8.53-5.35,11.32C38.18,23.94,37.96,24.01,37.74,24.01z"
   id="path7734" />
	<path
   class="st0"
   d="M34.03,19.49c-0.28,0-0.56-0.12-0.75-0.36c-0.34-0.42-0.28-1.03,0.13-1.37c1.59-1.31,2.5-3.24,2.5-5.29   c0-3.78-3.07-6.85-6.84-6.85c-3.77,0-6.84,3.07-6.84,6.85c0,2.05,0.91,3.97,2.49,5.28c0.42,0.34,0.47,0.96,0.13,1.37   c-0.34,0.42-0.96,0.47-1.37,0.13c-2.03-1.68-3.19-4.15-3.19-6.78c0-4.85,3.95-8.8,8.8-8.8c4.85,0,8.8,3.95,8.8,8.8   c0,2.64-1.17,5.12-3.22,6.8C34.47,19.41,34.25,19.49,34.03,19.49z"
   id="path7736" />
	<path
   class="st0"
   d="M9.14,39c-0.27,0-0.53-0.11-0.72-0.32c-1.56-1.71-2.41-3.93-2.41-6.25c0-2.83,1.26-5.47,3.47-7.24   c0.42-0.34,1.03-0.27,1.37,0.15c0.34,0.42,0.27,1.03-0.15,1.37c-1.74,1.4-2.74,3.49-2.74,5.72c0,1.83,0.68,3.58,1.91,4.94   c0.36,0.4,0.33,1.02-0.07,1.38C9.61,38.91,9.38,39,9.14,39z"
   id="path7738" />
	<path
   class="st0"
   d="M12.4,36.58c-0.27,0-0.53-0.11-0.73-0.33c-0.94-1.05-1.46-2.41-1.46-3.82c0-1.76,0.79-3.4,2.17-4.49   c0.42-0.34,1.04-0.26,1.37,0.16c0.34,0.42,0.26,1.04-0.16,1.37c-0.91,0.72-1.43,1.8-1.43,2.96c0,0.93,0.34,1.83,0.96,2.52   c0.36,0.4,0.33,1.02-0.08,1.38C12.87,36.5,12.64,36.58,12.4,36.58z"
   id="path7740" />
	<path
   class="st0"
   d="M1.4,55.79c-0.27,0-0.53-0.11-0.72-0.32c-1.87-2.06-2.9-4.73-2.9-7.51c0-3.4,1.52-6.57,4.17-8.71   c0.42-0.34,1.03-0.27,1.37,0.15c0.34,0.42,0.27,1.03-0.15,1.37c-2.19,1.76-3.44,4.38-3.44,7.19c0,2.3,0.85,4.5,2.4,6.2   c0.36,0.4,0.33,1.02-0.07,1.38C1.87,55.71,1.63,55.79,1.4,55.79z"
   id="path7742" />
	<path
   class="st0"
   d="M4.6,52.82c-0.27,0-0.53-0.11-0.73-0.33c-1.12-1.25-1.74-2.86-1.74-4.54c0-2.09,0.94-4.03,2.58-5.34   c0.42-0.34,1.04-0.26,1.37,0.16c0.34,0.42,0.26,1.04-0.16,1.37c-1.17,0.93-1.84,2.32-1.84,3.81c0,1.2,0.44,2.35,1.24,3.24   c0.36,0.4,0.33,1.02-0.08,1.38C5.06,52.74,4.83,52.82,4.6,52.82z"
   id="path7744" />
	<path
   class="st0"
   d="M9,60.96c-0.55,0-1-0.45-1-1V49.82c0-0.55,0.45-1,1-1s1,0.45,1,1v10.13C10,60.51,9.55,60.96,9,60.96z"
   id="path7746" />
	<path
   class="st0"
   d="M17,42.06c-0.55,0-1-0.45-1-1V33.6c0-0.55,0.45-1,1-1s1,0.45,1,1v7.46C18,41.61,17.55,42.06,17,42.06z"
   id="path7748" />
	<g
   id="g7752">
		<path
   class="st0"
   d="M49.41,50.92c-1.6,0-2.9-1.3-2.9-2.9c0-1.6,1.3-2.9,2.9-2.9c1.6,0,2.9,1.3,2.9,2.9    C52.3,49.62,51,50.92,49.41,50.92z M49.41,47.08c-0.52,0-0.94,0.42-0.94,0.94c0,0.52,0.42,0.94,0.94,0.94    c0.52,0,0.94-0.42,0.94-0.94C50.35,47.5,49.93,47.08,49.41,47.08z"
   id="path7750" />
	</g>
	<g
   id="g7756">
		<path
   class="st0"
   d="M41.95,34.66c-1.3,0-2.35-1.06-2.35-2.35c0-1.3,1.06-2.35,2.35-2.35c1.3,0,2.35,1.06,2.35,2.35    C44.3,33.61,43.24,34.66,41.95,34.66z M41.95,31.91c-0.22,0-0.4,0.18-0.4,0.4c0,0.22,0.18,0.4,0.4,0.4c0.22,0,0.4-0.18,0.4-0.4    C42.35,32.09,42.17,31.91,41.95,31.91z"
   id="path7754" />
	</g>
	<path
   class="st0"
   d="M49.4,39c-0.23,0-0.47-0.08-0.66-0.25c-0.4-0.36-0.43-0.98-0.07-1.38c1.23-1.35,1.91-3.11,1.91-4.94   c0-2.23-1-4.32-2.74-5.72c-0.42-0.34-0.49-0.95-0.15-1.37c0.34-0.42,0.95-0.49,1.37-0.15c2.2,1.78,3.47,4.41,3.47,7.24   c0,2.32-0.86,4.54-2.41,6.25C49.93,38.89,49.67,39,49.4,39z"
   id="path7758" />
	<path
   class="st0"
   d="M46.14,36.58c-0.23,0-0.46-0.08-0.65-0.25c-0.4-0.36-0.44-0.98-0.08-1.38c0.62-0.69,0.96-1.59,0.96-2.52   c0-1.16-0.52-2.24-1.43-2.96c-0.42-0.34-0.49-0.95-0.16-1.37c0.34-0.42,0.95-0.49,1.37-0.16c1.38,1.1,2.17,2.73,2.17,4.49   c0,1.41-0.52,2.77-1.46,3.82C46.68,36.47,46.41,36.58,46.14,36.58z"
   id="path7760" />
	<path
   class="st0"
   d="M57.15,55.79c-0.23,0-0.47-0.08-0.66-0.25c-0.4-0.36-0.43-0.98-0.07-1.38c1.55-1.7,2.4-3.9,2.4-6.2   c0-2.8-1.26-5.42-3.44-7.19c-0.42-0.34-0.49-0.95-0.15-1.37c0.34-0.42,0.95-0.49,1.37-0.15c2.65,2.14,4.17,5.31,4.17,8.71   c0,2.79-1.03,5.45-2.9,7.51C57.68,55.68,57.41,55.79,57.15,55.79z"
   id="path7762" />
	<path
   class="st0"
   d="M53.95,52.82c-0.23,0-0.46-0.08-0.65-0.25c-0.4-0.36-0.44-0.98-0.08-1.38c0.8-0.89,1.24-2.04,1.24-3.24   c0-1.49-0.67-2.88-1.84-3.81c-0.42-0.34-0.49-0.95-0.16-1.37c0.34-0.42,0.95-0.49,1.37-0.16c1.64,1.3,2.58,3.25,2.58,5.34   c0,1.68-0.62,3.29-1.73,4.54C54.48,52.71,54.22,52.82,53.95,52.82z"
   id="path7764" />
	<path
   class="st0"
   d="M49,60.96c-0.55,0-1-0.45-1-1V49.82c0-0.55,0.45-1,1-1c0.55,0,1,0.45,1,1v10.13C50,60.51,49.55,60.96,49,60.96   z"
   id="path7766" />
	<path
   class="st0"
   d="M42,42.06c-0.55,0-1-0.45-1-1V33.6c0-0.55,0.45-1,1-1c0.55,0,1,0.45,1,1v7.46C43,41.61,42.55,42.06,42,42.06z"
   id="path7768" />
</g>
</svg>