<?xml version="1.0" encoding="utf-8"?>
<!-- Generator: Adobe Illustrator 27.8.1, SVG Export Plug-In . SVG Version: 6.00 Build 0)  -->
<svg version="1.1" id="Layer_1" xmlns="http://www.w3.org/2000/svg" xmlns:xlink="http://www.w3.org/1999/xlink" x="0px" y="0px"
	 viewBox="0 0 58.63 58.63" style="enable-background:new 0 0 58.63 58.63;" xml:space="preserve">
<style type="text/css">
	.st0{fill:#484848;}
</style>
<g>
	<g>
		<path class="st0" d="M10.74,49.21c-1.47,0-2.67-1.2-2.67-2.67c0-1.47,1.2-2.67,2.67-2.67c1.47,0,2.67,1.2,2.67,2.67
			C13.4,48.01,12.21,49.21,10.74,49.21z M10.74,45.67c-0.48,0-0.87,0.39-0.87,0.87c0,0.48,0.39,0.87,0.87,0.87
			c0.48,0,0.87-0.39,0.87-0.87C11.61,46.06,11.22,45.67,10.74,45.67z"/>
	</g>
	<g>
		<path class="st0" d="M17.61,34.24c-1.19,0-2.17-0.97-2.17-2.17c0-1.19,0.97-2.17,2.17-2.17c1.19,0,2.17,0.97,2.17,2.17
			C19.77,33.27,18.8,34.24,17.61,34.24z M17.61,31.71c-0.2,0-0.37,0.17-0.37,0.37c0,0.2,0.17,0.37,0.37,0.37s0.37-0.17,0.37-0.37
			C17.97,31.87,17.81,31.71,17.61,31.71z"/>
	</g>
	<g>
		<path class="st0" d="M24.77,58.07c-0.03,0-0.07,0-0.1-0.01c-0.49-0.06-0.85-0.5-0.79-0.99l3-26.74c0.06-0.49,0.5-0.85,0.99-0.79
			c0.49,0.06,0.85,0.5,0.79,0.99l-3,26.74C25.61,57.73,25.22,58.07,24.77,58.07z"/>
		<path class="st0" d="M33.4,58.07c-0.45,0-0.84-0.34-0.89-0.8l-3-26.74c-0.06-0.49,0.3-0.94,0.79-0.99
			c0.49-0.06,0.94,0.3,0.99,0.79l3,26.74c0.06,0.49-0.3,0.94-0.79,0.99C33.47,58.07,33.44,58.07,33.4,58.07z"/>
		<path class="st0" d="M30.32,28.28c-0.45,0-0.84-0.34-0.89-0.8l-1.24-11.4c-0.05-0.49,0.3-0.94,0.8-0.99
			c0.49-0.05,0.94,0.3,0.99,0.8l1.24,11.4c0.05,0.49-0.3,0.94-0.8,0.99C30.39,28.27,30.35,28.28,30.32,28.28z"/>
		<path class="st0" d="M27.85,28.28c-0.03,0-0.07,0-0.1-0.01c-0.49-0.05-0.85-0.5-0.8-0.99l1.24-11.4c0.05-0.49,0.5-0.85,0.99-0.8
			c0.49,0.05,0.85,0.5,0.8,0.99l-1.24,11.4C28.69,27.93,28.3,28.28,27.85,28.28z"/>
		<path class="st0" d="M29.09,16.8c-1.64,0-2.97-1.33-2.97-2.97c0-1.64,1.33-2.97,2.97-2.97c1.64,0,2.97,1.33,2.97,2.97
			C32.06,15.47,30.73,16.8,29.09,16.8z M29.09,12.65c-0.65,0-1.18,0.53-1.18,1.18c0,0.65,0.53,1.18,1.18,1.18
			c0.65,0,1.18-0.53,1.18-1.18C30.26,13.18,29.73,12.65,29.09,12.65z"/>
		<path class="st0" d="M33.4,31.33h-8.64c-0.5,0-0.9-0.4-0.9-0.9v-3.06c0-0.5,0.4-0.9,0.9-0.9h8.64c0.5,0,0.9,0.4,0.9,0.9v3.06
			C34.3,30.93,33.9,31.33,33.4,31.33z M25.67,29.54h6.84v-1.26h-6.84V29.54z"/>
		<path class="st0" d="M31.59,41.92h-5.01c-0.5,0-0.9-0.4-0.9-0.9c0-0.5,0.4-0.9,0.9-0.9h5.01c0.5,0,0.9,0.4,0.9,0.9
			C32.49,41.52,32.09,41.92,31.59,41.92z"/>
		<path class="st0" d="M32.59,50.78h-7c-0.5,0-0.9-0.4-0.9-0.9c0-0.5,0.4-0.9,0.9-0.9h7c0.5,0,0.9,0.4,0.9,0.9
			C33.49,50.38,33.08,50.78,32.59,50.78z"/>
		<path class="st0" d="M24.77,58.07c-0.24,0-0.48-0.1-0.66-0.29c-0.34-0.36-0.32-0.93,0.04-1.27l7.26-6.76l-5.58-8.22
			c-0.19-0.28-0.21-0.64-0.04-0.94l4.17-7.52c0.24-0.43,0.79-0.59,1.22-0.35c0.43,0.24,0.59,0.79,0.35,1.22l-3.9,7.04l5.7,8.4
			c0.25,0.37,0.19,0.86-0.13,1.16l-7.82,7.29C25.21,57.99,24.99,58.07,24.77,58.07z"/>
	</g>
	<path class="st0" d="M37.07,24.43c-0.26,0-0.52-0.11-0.69-0.33c-0.32-0.38-0.26-0.95,0.12-1.27c2.71-2.23,4.27-5.53,4.27-9.04
		c0-6.45-5.24-11.69-11.69-11.69S17.4,7.35,17.4,13.8c0,3.5,1.55,6.78,4.24,9.01c0.38,0.32,0.44,0.88,0.12,1.27
		c-0.32,0.38-0.88,0.44-1.27,0.12c-3.11-2.57-4.89-6.36-4.89-10.4c0-7.44,6.05-13.49,13.48-13.49S42.57,6.36,42.57,13.8
		c0,4.05-1.8,7.85-4.93,10.42C37.47,24.36,37.27,24.43,37.07,24.43z"/>
	<path class="st0" d="M33.65,20.27c-0.26,0-0.52-0.11-0.69-0.33c-0.32-0.38-0.26-0.95,0.12-1.27c1.46-1.2,2.3-2.98,2.3-4.87
		c0-3.48-2.83-6.3-6.3-6.3c-3.47,0-6.3,2.83-6.3,6.3c0,1.89,0.83,3.66,2.29,4.86c0.38,0.32,0.44,0.88,0.12,1.27
		c-0.32,0.38-0.88,0.44-1.27,0.12c-1.87-1.55-2.94-3.82-2.94-6.24c0-4.47,3.63-8.1,8.1-8.1c4.47,0,8.1,3.63,8.1,8.1
		c0,2.43-1.08,4.71-2.96,6.26C34.06,20.2,33.86,20.27,33.65,20.27z"/>
	<path class="st0" d="M10.74,38.23c-0.24,0-0.49-0.1-0.67-0.29c-1.43-1.58-2.22-3.62-2.22-5.75c0-2.6,1.16-5.03,3.19-6.67
		c0.39-0.31,0.95-0.25,1.26,0.14c0.31,0.39,0.25,0.95-0.14,1.26c-1.6,1.29-2.52,3.21-2.52,5.27c0,1.68,0.62,3.3,1.76,4.54
		c0.33,0.37,0.31,0.94-0.06,1.27C11.17,38.15,10.96,38.23,10.74,38.23z"/>
	<path class="st0" d="M13.74,36c-0.25,0-0.49-0.1-0.67-0.3c-0.87-0.97-1.34-2.22-1.34-3.52c0-1.62,0.73-3.13,2-4.14
		c0.39-0.31,0.95-0.24,1.26,0.15c0.31,0.39,0.24,0.95-0.14,1.26c-0.84,0.67-1.32,1.66-1.32,2.73c0,0.86,0.31,1.68,0.89,2.32
		c0.33,0.37,0.3,0.94-0.07,1.27C14.17,35.93,13.96,36,13.74,36z"/>
	<path class="st0" d="M3.61,53.69c-0.24,0-0.49-0.1-0.67-0.29c-1.72-1.9-2.67-4.35-2.67-6.92c0-3.13,1.4-6.05,3.84-8.02
		c0.39-0.31,0.95-0.25,1.26,0.14c0.31,0.39,0.25,0.95-0.14,1.26c-2.02,1.62-3.17,4.03-3.17,6.62c0,2.12,0.78,4.14,2.21,5.71
		c0.33,0.37,0.31,0.94-0.06,1.27C4.04,53.61,3.83,53.69,3.61,53.69z"/>
	<path class="st0" d="M6.56,50.95c-0.25,0-0.49-0.1-0.67-0.3c-1.03-1.15-1.6-2.64-1.6-4.18c0-1.92,0.87-3.71,2.37-4.91
		c0.39-0.31,0.95-0.24,1.26,0.14c0.31,0.39,0.24,0.95-0.14,1.26c-1.08,0.86-1.69,2.13-1.69,3.5c0,1.1,0.4,2.16,1.14,2.98
		c0.33,0.37,0.3,0.94-0.07,1.27C6.99,50.88,6.77,50.95,6.56,50.95z"/>
	<path class="st0" d="M10.74,58.31c-0.5,0-0.9-0.4-0.9-0.9v-9.11c0-0.5,0.4-0.9,0.9-0.9s0.9,0.4,0.9,0.9v9.11
		C11.64,57.91,11.23,58.31,10.74,58.31z"/>
	<path class="st0" d="M17.61,40.94c-0.5,0-0.9-0.4-0.9-0.9v-6.71c0-0.5,0.4-0.9,0.9-0.9c0.5,0,0.9,0.4,0.9,0.9v6.71
		C18.5,40.54,18.1,40.94,17.61,40.94z"/>
	<g>
		<path class="st0" d="M47.81,49.21c-1.47,0-2.67-1.2-2.67-2.67c0-1.47,1.2-2.67,2.67-2.67s2.67,1.2,2.67,2.67
			C50.48,48.01,49.28,49.21,47.81,49.21z M47.81,45.67c-0.48,0-0.87,0.39-0.87,0.87c0,0.48,0.39,0.87,0.87,0.87s0.87-0.39,0.87-0.87
			C48.68,46.06,48.29,45.67,47.81,45.67z"/>
	</g>
	<g>
		<path class="st0" d="M40.94,34.24c-1.19,0-2.17-0.97-2.17-2.17c0-1.19,0.97-2.17,2.17-2.17c1.19,0,2.17,0.97,2.17,2.17
			C43.11,33.27,42.14,34.24,40.94,34.24z M40.94,31.71c-0.2,0-0.37,0.17-0.37,0.37c0,0.2,0.17,0.37,0.37,0.37
			c0.2,0,0.37-0.17,0.37-0.37C41.31,31.87,41.15,31.71,40.94,31.71z"/>
	</g>
	<path class="st0" d="M47.81,38.23c-0.22,0-0.43-0.08-0.6-0.23c-0.37-0.33-0.39-0.9-0.06-1.27c1.13-1.25,1.76-2.86,1.76-4.54
		c0-2.05-0.92-3.97-2.52-5.27c-0.39-0.31-0.45-0.88-0.14-1.26c0.31-0.39,0.88-0.45,1.26-0.14c2.03,1.63,3.19,4.06,3.19,6.67
		c0,2.13-0.79,4.18-2.22,5.75C48.29,38.13,48.05,38.23,47.81,38.23z"/>
	<path class="st0" d="M44.8,36c-0.21,0-0.43-0.08-0.6-0.23c-0.37-0.33-0.4-0.9-0.07-1.27c0.57-0.64,0.89-1.46,0.89-2.32
		c0-1.07-0.48-2.06-1.32-2.73c-0.39-0.31-0.45-0.87-0.14-1.26c0.31-0.39,0.87-0.45,1.26-0.15c1.27,1.01,2,2.52,2,4.14
		c0,1.3-0.48,2.55-1.34,3.52C45.3,35.9,45.05,36,44.8,36z"/>
	<path class="st0" d="M54.94,53.69c-0.22,0-0.43-0.08-0.6-0.23c-0.37-0.33-0.39-0.9-0.06-1.27c1.42-1.57,2.21-3.59,2.21-5.71
		c0-2.58-1.16-4.99-3.17-6.62c-0.39-0.31-0.45-0.88-0.14-1.26c0.31-0.39,0.88-0.45,1.26-0.14c2.44,1.97,3.84,4.89,3.84,8.02
		c0,2.56-0.95,5.02-2.67,6.92C55.42,53.59,55.18,53.69,54.94,53.69z"/>
	<path class="st0" d="M51.99,50.95c-0.21,0-0.43-0.08-0.6-0.23c-0.37-0.33-0.4-0.9-0.07-1.27c0.73-0.82,1.14-1.88,1.14-2.98
		c0-1.37-0.62-2.65-1.69-3.5c-0.39-0.31-0.45-0.87-0.14-1.26c0.31-0.39,0.87-0.45,1.26-0.14c1.51,1.2,2.37,2.99,2.37,4.91
		c0,1.54-0.57,3.03-1.6,4.18C52.48,50.85,52.24,50.95,51.99,50.95z"/>
	<path class="st0" d="M47.81,58.31c-0.5,0-0.9-0.4-0.9-0.9v-9.11c0-0.5,0.4-0.9,0.9-0.9s0.9,0.4,0.9,0.9v9.11
		C48.71,57.91,48.31,58.31,47.81,58.31z"/>
	<path class="st0" d="M40.94,40.94c-0.5,0-0.9-0.4-0.9-0.9v-6.71c0-0.5,0.4-0.9,0.9-0.9c0.5,0,0.9,0.4,0.9,0.9v6.71
		C41.84,40.54,41.44,40.94,40.94,40.94z"/>
</g>
</svg>
