<?xml version="1.0" encoding="utf-8"?>
<!-- Generator: Adobe Illustrator 27.8.1, SVG Export Plug-In . SVG Version: 6.00 Build 0)  -->
<svg version="1.0" id="Layer_1" xmlns="http://www.w3.org/2000/svg" xmlns:xlink="http://www.w3.org/1999/xlink" x="0px" y="0px"
	 viewBox="0 0 63 63" style="enable-background:new 0 0 63 63;" xml:space="preserve">
<style type="text/css">
	.st0{fill:#5F72B5;}
</style>
<g>
	<g>
		<path class="st0" d="M11.5,53.09c-1.6,0-2.9-1.3-2.9-2.9c0-1.6,1.3-2.9,2.9-2.9c1.6,0,2.9,1.3,2.9,2.9
			C14.4,51.79,13.1,53.09,11.5,53.09z M11.5,49.25c-0.52,0-0.94,0.42-0.94,0.94c0,0.52,0.42,0.94,0.94,0.94
			c0.52,0,0.94-0.42,0.94-0.94C12.44,49.67,12.02,49.25,11.5,49.25z"/>
	</g>
	<g>
		<path class="st0" d="M18.96,36.83c-1.3,0-2.35-1.06-2.35-2.35c0-1.3,1.06-2.35,2.35-2.35c1.3,0,2.35,1.06,2.35,2.35
			C21.31,35.78,20.26,36.83,18.96,36.83z M18.96,34.08c-0.22,0-0.4,0.18-0.4,0.4c0,0.22,0.18,0.4,0.4,0.4s0.4-0.18,0.4-0.4
			C19.36,34.26,19.18,34.08,18.96,34.08z"/>
	</g>
	<g>
		<path class="st0" d="M26.74,62.72c-0.04,0-0.07,0-0.11-0.01c-0.54-0.06-0.92-0.54-0.86-1.08l3.26-29.04
			c0.06-0.54,0.54-0.92,1.08-0.86c0.54,0.06,0.92,0.54,0.86,1.08l-3.26,29.04C27.65,62.35,27.23,62.72,26.74,62.72z"/>
		<path class="st0" d="M36.12,62.72c-0.49,0-0.91-0.37-0.97-0.87l-3.26-29.04c-0.06-0.54,0.33-1.02,0.86-1.08
			c0.54-0.06,1.02,0.33,1.08,0.86l3.26,29.04c0.06,0.54-0.33,1.02-0.86,1.08C36.19,62.72,36.16,62.72,36.12,62.72z"/>
		<path class="st0" d="M32.77,30.35c-0.49,0-0.91-0.37-0.97-0.87L30.46,17.1c-0.06-0.54,0.33-1.02,0.87-1.08
			c0.54-0.06,1.02,0.33,1.08,0.87l1.34,12.38c0.06,0.54-0.33,1.02-0.87,1.08C32.84,30.35,32.81,30.35,32.77,30.35z"/>
		<path class="st0" d="M30.09,30.35c-0.04,0-0.07,0-0.11-0.01c-0.54-0.06-0.92-0.54-0.87-1.08l1.34-12.38
			c0.06-0.54,0.54-0.92,1.08-0.87c0.54,0.06,0.92,0.54,0.87,1.08l-1.34,12.38C31,29.98,30.58,30.35,30.09,30.35z"/>
		<path class="st0" d="M31.43,17.89c-1.78,0-3.23-1.45-3.23-3.23c0-1.78,1.45-3.23,3.23-3.23c1.78,0,3.23,1.45,3.23,3.23
			C34.66,16.44,33.21,17.89,31.43,17.89z M31.43,13.38c-0.7,0-1.28,0.57-1.28,1.28c0,0.7,0.57,1.28,1.28,1.28
			c0.7,0,1.28-0.57,1.28-1.28C32.71,13.95,32.13,13.38,31.43,13.38z"/>
		<path class="st0" d="M36.38,33.17h-9.05c-0.54,0-0.98-0.44-0.98-0.98v-3.05c0-0.54,0.44-0.98,0.98-0.98h9.05
			c0.54,0,0.98,0.44,0.98,0.98v3.05C37.36,32.73,36.92,33.17,36.38,33.17z M28.36,31.17h7v-1h-7V31.17z"/>
		<path class="st0" d="M34.22,45.17h-5.58c-0.55,0-1-0.45-1-1s0.45-1,1-1h5.58c0.55,0,1,0.45,1,1S34.77,45.17,34.22,45.17z"/>
		<path class="st0" d="M35.32,55.17h-7.79c-0.55,0-1-0.45-1-1c0-0.55,0.45-1,1-1h7.79c0.55,0,1,0.45,1,1
			C36.32,54.72,35.88,55.17,35.32,55.17z"/>
		<path class="st0" d="M26.74,62.72c-0.26,0-0.52-0.1-0.71-0.31c-0.37-0.39-0.35-1.01,0.05-1.38l7.88-7.35l-6.06-8.93
			c-0.21-0.3-0.22-0.7-0.05-1.02l4.53-8.17c0.26-0.47,0.86-0.64,1.33-0.38c0.47,0.26,0.64,0.86,0.38,1.33l-4.24,7.64l6.19,9.13
			c0.27,0.4,0.21,0.93-0.14,1.26l-8.49,7.92C27.22,62.63,26.98,62.72,26.74,62.72z"/>
	</g>
	<path class="st0" d="M40.1,26.18c-0.28,0-0.56-0.12-0.75-0.36c-0.34-0.42-0.28-1.03,0.13-1.37c2.95-2.42,4.64-6,4.64-9.81
		c0-7-5.69-12.7-12.69-12.7s-12.69,5.7-12.69,12.7c0,3.8,1.68,7.37,4.61,9.79c0.42,0.34,0.47,0.96,0.13,1.37
		c-0.34,0.42-0.96,0.47-1.37,0.13c-3.38-2.8-5.32-6.91-5.32-11.29c0-8.08,6.57-14.65,14.65-14.65s14.65,6.57,14.65,14.65
		c0,4.4-1.95,8.53-5.35,11.32C40.54,26.1,40.32,26.18,40.1,26.18z"/>
	<path class="st0" d="M36.39,21.65c-0.28,0-0.56-0.12-0.75-0.36c-0.34-0.42-0.28-1.03,0.13-1.37c1.59-1.31,2.5-3.24,2.5-5.29
		c0-3.78-3.07-6.85-6.84-6.85c-3.77,0-6.84,3.07-6.84,6.85c0,2.05,0.91,3.97,2.49,5.28c0.42,0.34,0.47,0.96,0.13,1.37
		c-0.34,0.42-0.96,0.47-1.37,0.13c-2.03-1.68-3.19-4.15-3.19-6.78c0-4.85,3.95-8.8,8.8-8.8c4.85,0,8.8,3.95,8.8,8.8
		c0,2.64-1.17,5.12-3.22,6.8C36.83,21.58,36.61,21.65,36.39,21.65z"/>
	<path class="st0" d="M11.51,41.17c-0.27,0-0.53-0.11-0.72-0.32c-1.56-1.71-2.41-3.93-2.41-6.25c0-2.83,1.26-5.47,3.47-7.24
		c0.42-0.34,1.03-0.27,1.37,0.15c0.34,0.42,0.27,1.03-0.15,1.37c-1.74,1.4-2.74,3.49-2.74,5.72c0,1.83,0.68,3.58,1.91,4.94
		c0.36,0.4,0.33,1.02-0.07,1.38C11.97,41.08,11.74,41.17,11.51,41.17z"/>
	<path class="st0" d="M14.76,38.75c-0.27,0-0.53-0.11-0.73-0.33c-0.94-1.05-1.46-2.41-1.46-3.82c0-1.76,0.79-3.4,2.17-4.49
		c0.42-0.34,1.04-0.26,1.37,0.16c0.34,0.42,0.26,1.04-0.16,1.37c-0.91,0.72-1.43,1.8-1.43,2.96c0,0.93,0.34,1.83,0.96,2.52
		c0.36,0.4,0.33,1.02-0.08,1.38C15.23,38.66,15,38.75,14.76,38.75z"/>
	<path class="st0" d="M3.76,57.96c-0.27,0-0.53-0.11-0.72-0.32c-1.87-2.06-2.9-4.73-2.9-7.51c0-3.4,1.52-6.57,4.17-8.71
		c0.42-0.34,1.03-0.27,1.37,0.15c0.34,0.42,0.27,1.03-0.15,1.37c-2.19,1.76-3.44,4.38-3.44,7.19c0,2.3,0.85,4.5,2.4,6.2
		c0.36,0.4,0.33,1.02-0.07,1.38C4.23,57.87,3.99,57.96,3.76,57.96z"/>
	<path class="st0" d="M6.96,54.99c-0.27,0-0.53-0.11-0.73-0.33C5.11,53.41,4.5,51.8,4.5,50.12c0-2.09,0.94-4.03,2.58-5.34
		c0.42-0.34,1.04-0.26,1.37,0.16c0.34,0.42,0.26,1.04-0.16,1.37c-1.17,0.93-1.84,2.32-1.84,3.81c0,1.2,0.44,2.35,1.24,3.24
		c0.36,0.4,0.33,1.02-0.08,1.38C7.42,54.91,7.19,54.99,6.96,54.99z"/>
	<path class="st0" d="M11.36,63.13c-0.55,0-1-0.45-1-1V51.99c0-0.55,0.45-1,1-1c0.55,0,1,0.45,1,1v10.13
		C12.36,62.68,11.91,63.13,11.36,63.13z"/>
	<path class="st0" d="M19.36,44.23c-0.55,0-1-0.45-1-1v-7.46c0-0.55,0.45-1,1-1c0.55,0,1,0.45,1,1v7.46
		C20.36,43.78,19.91,44.23,19.36,44.23z"/>
	<g>
		<path class="st0" d="M51.77,53.09c-1.6,0-2.9-1.3-2.9-2.9c0-1.6,1.3-2.9,2.9-2.9s2.9,1.3,2.9,2.9
			C54.66,51.79,53.37,53.09,51.77,53.09z M51.77,49.25c-0.52,0-0.94,0.42-0.94,0.94c0,0.52,0.42,0.94,0.94,0.94s0.94-0.42,0.94-0.94
			C52.71,49.67,52.29,49.25,51.77,49.25z"/>
	</g>
	<g>
		<path class="st0" d="M44.31,36.83c-1.3,0-2.35-1.06-2.35-2.35c0-1.3,1.06-2.35,2.35-2.35c1.3,0,2.35,1.06,2.35,2.35
			C46.66,35.78,45.61,36.83,44.31,36.83z M44.31,34.08c-0.22,0-0.4,0.18-0.4,0.4c0,0.22,0.18,0.4,0.4,0.4c0.22,0,0.4-0.18,0.4-0.4
			C44.71,34.26,44.53,34.08,44.31,34.08z"/>
	</g>
	<path class="st0" d="M51.76,41.17c-0.23,0-0.47-0.08-0.66-0.25c-0.4-0.36-0.43-0.98-0.07-1.38c1.23-1.35,1.91-3.11,1.91-4.94
		c0-2.23-1-4.32-2.74-5.72c-0.42-0.34-0.49-0.95-0.15-1.37c0.34-0.42,0.95-0.49,1.37-0.15c2.2,1.78,3.47,4.41,3.47,7.24
		c0,2.32-0.86,4.54-2.41,6.25C52.29,41.06,52.03,41.17,51.76,41.17z"/>
	<path class="st0" d="M48.5,38.75c-0.23,0-0.46-0.08-0.65-0.25c-0.4-0.36-0.44-0.98-0.08-1.38c0.62-0.69,0.96-1.59,0.96-2.52
		c0-1.16-0.52-2.24-1.43-2.96c-0.42-0.34-0.49-0.95-0.16-1.37c0.34-0.42,0.95-0.49,1.37-0.16c1.38,1.1,2.17,2.73,2.17,4.49
		c0,1.41-0.52,2.77-1.46,3.82C49.04,38.64,48.77,38.75,48.5,38.75z"/>
	<path class="st0" d="M59.51,57.96c-0.23,0-0.47-0.08-0.66-0.25c-0.4-0.36-0.43-0.98-0.07-1.38c1.55-1.7,2.4-3.9,2.4-6.2
		c0-2.8-1.26-5.42-3.44-7.19c-0.42-0.34-0.49-0.95-0.15-1.37c0.34-0.42,0.95-0.49,1.37-0.15c2.65,2.14,4.17,5.31,4.17,8.71
		c0,2.79-1.03,5.45-2.9,7.51C60.04,57.85,59.77,57.96,59.51,57.96z"/>
	<path class="st0" d="M56.31,54.99c-0.23,0-0.46-0.08-0.65-0.25c-0.4-0.36-0.44-0.98-0.08-1.38c0.8-0.89,1.24-2.04,1.24-3.24
		c0-1.49-0.67-2.88-1.84-3.81c-0.42-0.34-0.49-0.95-0.16-1.37c0.34-0.42,0.95-0.49,1.37-0.16c1.64,1.3,2.58,3.25,2.58,5.34
		c0,1.68-0.62,3.29-1.73,4.54C56.84,54.88,56.58,54.99,56.31,54.99z"/>
	<path class="st0" d="M51.36,63.13c-0.55,0-1-0.45-1-1V51.99c0-0.55,0.45-1,1-1c0.55,0,1,0.45,1,1v10.13
		C52.36,62.68,51.91,63.13,51.36,63.13z"/>
	<path class="st0" d="M44.36,44.23c-0.55,0-1-0.45-1-1v-7.46c0-0.55,0.45-1,1-1c0.55,0,1,0.45,1,1v7.46
		C45.36,43.78,44.91,44.23,44.36,44.23z"/>
</g>
</svg>
